<?xml version="1.0" encoding="UTF-8"?> <svg xmlns="http://www.w3.org/2000/svg" xmlns:xlink="http://www.w3.org/1999/xlink" width="181pt" height="49pt" viewBox="0 0 181 49" version="1.1"><g id="surface1"><path style=" stroke:none;fill-rule:nonzero;fill:rgb(92.156863%,39.607843%,18.823529%);fill-opacity:1;" d="M 65.164062 13.777344 L 65.164062 25.78125 L 63.011719 25.78125 L 63.011719 20.796875 L 57.929688 20.796875 L 57.929688 25.78125 L 55.777344 25.78125 L 55.777344 13.777344 L 57.929688 13.777344 L 57.929688 18.761719 L 63.011719 18.761719 L 63.011719 13.777344 Z M 65.164062 13.777344 "></path><path style=" stroke:none;fill-rule:nonzero;fill:rgb(92.156863%,39.607843%,18.823529%);fill-opacity:1;" d="M 72.46875 19.609375 L 74.855469 19.609375 L 74.855469 21.210938 L 72.46875 21.210938 L 72.46875 23.585938 L 70.871094 23.585938 L 70.871094 21.210938 L 68.484375 21.210938 L 68.484375 19.609375 L 70.871094 19.609375 L 70.871094 17.199219 L 72.46875 17.199219 Z M 72.46875 19.609375 "></path><path style=" stroke:none;fill-rule:nonzero;fill:rgb(92.156863%,39.607843%,18.823529%);fill-opacity:1;" d="M 94.351562 13.777344 L 90.507812 25.78125 L 88.285156 25.78125 L 85.609375 17.414062 L 82.917969 25.78125 L 80.691406 25.78125 L 76.851562 13.777344 L 79.113281 13.777344 L 81.804688 22.652344 L 84.660156 13.777344 L 86.542969 13.777344 L 89.398438 22.652344 L 92.105469 13.777344 Z M 94.351562 13.777344 "></path><path style=" stroke:none;fill-rule:nonzero;fill:rgb(92.156863%,39.607843%,18.823529%);fill-opacity:1;" d="M 110.9375 23.191406 L 110.9375 25.207031 C 109.859375 25.636719 108.65625 25.925781 107.3125 25.925781 C 104.761719 25.925781 101.730469 24.863281 101.730469 19.769531 C 101.730469 14.679688 104.761719 13.617188 107.3125 13.617188 C 108.65625 13.617188 109.859375 13.902344 110.9375 14.335938 L 110.9375 16.351562 C 109.933594 15.882812 108.800781 15.558594 107.507812 15.558594 C 105.625 15.558594 103.882812 16.0625 103.882812 19.769531 C 103.882812 23.480469 105.625 23.984375 107.507812 23.984375 C 108.800781 23.984375 109.933594 23.660156 110.9375 23.191406 Z M 110.9375 23.191406 "></path><path style=" stroke:none;fill-rule:nonzero;fill:rgb(92.156863%,39.607843%,18.823529%);fill-opacity:1;" d="M 121.777344 19.769531 C 121.777344 16.046875 120.128906 15.542969 118.332031 15.542969 C 116.554688 15.542969 114.90625 16.046875 114.90625 19.769531 C 114.90625 23.515625 116.554688 24.035156 118.332031 24.035156 C 120.128906 24.035156 121.777344 23.515625 121.777344 19.769531 Z M 123.933594 19.789062 C 123.933594 24.863281 120.882812 25.925781 118.332031 25.925781 C 115.785156 25.925781 112.75 24.863281 112.75 19.789062 C 112.75 14.695312 115.785156 13.632812 118.332031 13.632812 C 120.882812 13.632812 123.933594 14.695312 123.933594 19.789062 Z M 123.933594 19.789062 "></path><path style=" stroke:none;fill-rule:nonzero;fill:rgb(92.156863%,39.607843%,18.823529%);fill-opacity:1;" d="M 137.214844 13.777344 L 137.214844 25.78125 L 134.8125 25.78125 L 128.621094 16.820312 L 128.621094 25.78125 L 126.464844 25.78125 L 126.464844 13.777344 L 128.90625 13.777344 L 135.0625 22.667969 L 135.0625 13.777344 Z M 137.214844 13.777344 "></path><path style=" stroke:none;fill-rule:nonzero;fill:rgb(92.156863%,39.607843%,18.823529%);fill-opacity:1;" d="M 148.058594 22.613281 C 148.058594 24.613281 146.15625 25.925781 143.929688 25.925781 C 142.226562 25.925781 140.953125 25.496094 139.980469 24.902344 L 139.980469 22.703125 C 140.824219 23.335938 141.957031 23.855469 143.429688 23.855469 C 144.667969 23.855469 145.90625 23.585938 145.90625 22.472656 C 145.90625 19.808594 139.820312 21.320312 139.820312 17.125 C 139.820312 14.679688 141.847656 13.632812 144.09375 13.632812 C 145.296875 13.632812 146.371094 13.976562 147.304688 14.460938 L 147.304688 16.566406 C 146.570312 16.082031 145.582031 15.648438 144.34375 15.648438 C 143.210938 15.648438 141.976562 15.992188 141.976562 17.070312 C 141.976562 19.265625 148.058594 17.71875 148.058594 22.613281 Z M 148.058594 22.613281 "></path><path style=" stroke:none;fill-rule:nonzero;fill:rgb(92.156863%,39.607843%,18.823529%);fill-opacity:1;" d="M 160.605469 13.777344 L 160.605469 20.707031 C 160.605469 24.019531 158.777344 25.925781 155.582031 25.925781 C 152.402344 25.925781 150.574219 24.019531 150.574219 20.707031 L 150.574219 13.777344 L 152.726562 13.777344 L 152.726562 20.886719 C 152.726562 23.011719 153.605469 23.945312 155.582031 23.945312 C 157.574219 23.945312 158.453125 23.011719 158.453125 20.886719 L 158.453125 13.777344 Z M 160.605469 13.777344 "></path><path style=" stroke:none;fill-rule:nonzero;fill:rgb(92.156863%,39.607843%,18.823529%);fill-opacity:1;" d="M 171.539062 23.730469 L 171.539062 25.78125 L 163.621094 25.78125 L 163.621094 13.777344 L 165.777344 13.777344 L 165.777344 23.730469 Z M 171.539062 23.730469 "></path><path style=" stroke:none;fill-rule:nonzero;fill:rgb(92.156863%,39.607843%,18.823529%);fill-opacity:1;" d="M 180.890625 13.777344 L 180.890625 15.9375 L 177.050781 15.9375 L 177.050781 25.78125 L 174.894531 25.78125 L 174.894531 15.9375 L 171.074219 15.9375 L 171.074219 13.777344 Z M 180.890625 13.777344 "></path><path style=" stroke:none;fill-rule:nonzero;fill:rgb(92.156863%,39.607843%,18.823529%);fill-opacity:1;" d="M 58.828125 34.074219 C 58.828125 32.988281 58.582031 32.496094 57.855469 32.496094 C 57.351562 32.496094 57 32.609375 57 33.007812 L 57 35.480469 C 57.199219 35.507812 57.425781 35.535156 57.703125 35.535156 C 58.382812 35.535156 58.828125 35.222656 58.828125 34.074219 Z M 59.976562 34.015625 C 59.976562 35.5625 59.191406 36.417969 57.777344 36.417969 C 57.511719 36.417969 57.257812 36.390625 57 36.332031 L 57 38.082031 L 55.863281 38.082031 L 55.863281 33.113281 C 55.863281 32.34375 56.386719 31.519531 57.855469 31.519531 C 58.488281 31.519531 59.976562 31.765625 59.976562 34.015625 Z M 59.976562 34.015625 "></path><path style=" stroke:none;fill-rule:nonzero;fill:rgb(92.156863%,39.607843%,18.823529%);fill-opacity:1;" d="M 61.738281 29.78125 L 62.875 29.78125 L 62.875 36.324219 L 61.738281 36.324219 Z M 61.738281 29.78125 "></path><path style=" stroke:none;fill-rule:nonzero;fill:rgb(92.156863%,39.607843%,18.823529%);fill-opacity:1;" d="M 67.441406 34.074219 C 67.242188 34.042969 67.015625 34.015625 66.757812 34.015625 C 65.992188 34.015625 65.6875 34.242188 65.6875 34.632812 C 65.6875 35.128906 65.984375 35.394531 66.578125 35.394531 C 67.214844 35.394531 67.441406 35.109375 67.441406 34.671875 Z M 68.578125 33.523438 L 68.578125 34.804688 C 68.578125 35.574219 68.058594 36.398438 66.589844 36.398438 C 65.089844 36.398438 64.5625 35.5625 64.5625 34.777344 C 64.5625 34.425781 64.703125 33.285156 66.597656 33.285156 C 66.890625 33.285156 67.175781 33.3125 67.433594 33.351562 C 67.433594 32.839844 67.167969 32.457031 66.425781 32.457031 C 65.859375 32.457031 65.394531 32.554688 65.042969 32.695312 L 65.042969 31.773438 C 65.441406 31.613281 65.925781 31.507812 66.492188 31.507812 C 67.839844 31.507812 68.578125 32.21875 68.578125 33.523438 Z M 68.578125 33.523438 "></path><path style=" stroke:none;fill-rule:nonzero;fill:rgb(92.156863%,39.607843%,18.823529%);fill-opacity:1;" d="M 74.59375 33.472656 L 74.59375 36.324219 L 73.464844 36.324219 L 73.464844 33.378906 C 73.464844 32.960938 73.378906 32.515625 72.347656 32.515625 C 72.027344 32.515625 71.722656 32.554688 71.46875 32.601562 L 71.46875 36.324219 L 70.332031 36.324219 L 70.332031 32.03125 C 70.367188 32.011719 71.296875 31.507812 72.5 31.507812 C 73.816406 31.507812 74.59375 32.238281 74.59375 33.472656 Z M 74.59375 33.472656 "></path><path style=" stroke:none;fill-rule:nonzero;fill:rgb(92.156863%,39.607843%,18.823529%);fill-opacity:1;" d="M 77.125 35.269531 L 78.230469 35.269531 L 78.230469 36.324219 L 77.125 36.324219 Z M 77.125 35.269531 "></path><path style=" stroke:none;fill-rule:nonzero;fill:rgb(92.156863%,39.607843%,18.823529%);fill-opacity:1;" d="M 80.816406 36.324219 L 80.816406 31.585938 L 81.957031 31.585938 L 81.957031 36.324219 Z M 80.800781 30.9375 L 80.800781 29.894531 L 81.964844 29.894531 L 81.964844 30.9375 Z M 80.800781 30.9375 "></path><path style=" stroke:none;fill-rule:nonzero;fill:rgb(92.156863%,39.607843%,18.823529%);fill-opacity:1;" d="M 88.21875 33.472656 L 88.21875 36.324219 L 87.089844 36.324219 L 87.089844 33.378906 C 87.089844 32.960938 87.003906 32.515625 85.972656 32.515625 C 85.648438 32.515625 85.347656 32.554688 85.089844 32.601562 L 85.089844 36.324219 L 83.953125 36.324219 L 83.953125 32.03125 C 83.992188 32.011719 84.921875 31.507812 86.125 31.507812 C 87.441406 31.507812 88.21875 32.238281 88.21875 33.472656 Z M 88.21875 33.472656 "></path><path style=" stroke:none;fill-rule:nonzero;fill:rgb(92.156863%,39.607843%,18.823529%);fill-opacity:1;" d="M 91.476562 32.5625 L 91.476562 34.898438 C 91.476562 35.316406 91.636719 35.421875 92.054688 35.421875 C 92.273438 35.421875 92.441406 35.382812 92.59375 35.316406 L 92.59375 36.257812 C 92.367188 36.351562 92.121094 36.398438 91.847656 36.398438 C 90.90625 36.398438 90.339844 35.8125 90.339844 34.832031 L 90.339844 32.5625 L 89.542969 32.5625 L 89.542969 31.585938 L 90.339844 31.585938 L 90.339844 30.179688 L 91.476562 30.179688 L 91.476562 31.585938 L 92.59375 31.585938 L 92.59375 32.5625 Z M 91.476562 32.5625 "></path><path style=" stroke:none;fill-rule:nonzero;fill:rgb(92.156863%,39.607843%,18.823529%);fill-opacity:1;" d="M 95.113281 33.597656 L 97.019531 33.597656 C 96.960938 33 96.667969 32.429688 96.0625 32.429688 C 95.503906 32.429688 95.179688 32.753906 95.113281 33.597656 Z M 97.925781 35.050781 L 97.925781 35.972656 C 97.492188 36.210938 96.90625 36.398438 96.144531 36.398438 C 95.210938 36.398438 93.949219 36.019531 93.949219 34.007812 C 93.949219 32.589844 94.515625 31.5 96.0625 31.5 C 97.539062 31.5 98.175781 32.609375 98.175781 33.796875 C 98.175781 34.007812 98.175781 34.195312 98.15625 34.386719 L 95.113281 34.386719 C 95.179688 35.296875 95.765625 35.421875 96.316406 35.421875 C 96.988281 35.421875 97.53125 35.242188 97.925781 35.050781 Z M 97.925781 35.050781 "></path><path style=" stroke:none;fill-rule:nonzero;fill:rgb(92.156863%,39.607843%,18.823529%);fill-opacity:1;" d="M 102.417969 33.054688 C 102.417969 32.628906 102.050781 32.523438 101.621094 32.523438 C 101.054688 32.523438 100.703125 32.886719 100.703125 33.957031 C 100.703125 35.097656 101.101562 35.328125 101.738281 35.328125 C 102 35.328125 102.230469 35.296875 102.417969 35.261719 Z M 103.554688 33.066406 L 103.554688 36.4375 C 103.554688 37.082031 103.28125 38.175781 101.421875 38.175781 C 100.855469 38.175781 100.398438 38.089844 100.058594 37.984375 L 100.058594 36.96875 C 100.34375 37.066406 100.761719 37.160156 101.292969 37.160156 C 102.417969 37.160156 102.417969 36.742188 102.417969 36.4375 L 102.417969 36.179688 C 102.183594 36.230469 101.945312 36.257812 101.699219 36.257812 C 100.324219 36.257812 99.566406 35.429688 99.566406 33.941406 C 99.566406 31.746094 101.007812 31.507812 101.621094 31.507812 C 103.054688 31.507812 103.554688 32.316406 103.554688 33.066406 Z M 103.554688 33.066406 "></path><path style=" stroke:none;fill-rule:nonzero;fill:rgb(92.156863%,39.607843%,18.823529%);fill-opacity:1;" d="M 107.707031 31.507812 L 107.707031 32.496094 C 107.070312 32.503906 106.644531 32.609375 106.484375 32.65625 L 106.484375 36.324219 L 105.347656 36.324219 L 105.347656 32.011719 C 105.347656 32.011719 106.351562 31.535156 107.707031 31.507812 Z M 107.707031 31.507812 "></path><path style=" stroke:none;fill-rule:nonzero;fill:rgb(92.156863%,39.607843%,18.823529%);fill-opacity:1;" d="M 111.796875 34.074219 C 111.597656 34.042969 111.371094 34.015625 111.117188 34.015625 C 110.347656 34.015625 110.046875 34.242188 110.046875 34.632812 C 110.046875 35.128906 110.339844 35.394531 110.9375 35.394531 C 111.570312 35.394531 111.796875 35.109375 111.796875 34.671875 Z M 112.933594 33.523438 L 112.933594 34.804688 C 112.933594 35.574219 112.414062 36.398438 110.945312 36.398438 C 109.449219 36.398438 108.917969 35.5625 108.917969 34.777344 C 108.917969 34.425781 109.058594 33.285156 110.953125 33.285156 C 111.25 33.285156 111.53125 33.3125 111.789062 33.351562 C 111.789062 32.839844 111.523438 32.457031 110.785156 32.457031 C 110.214844 32.457031 109.75 32.554688 109.402344 32.695312 L 109.402344 31.773438 C 109.800781 31.613281 110.28125 31.507812 110.851562 31.507812 C 112.195312 31.507812 112.933594 32.21875 112.933594 33.523438 Z M 112.933594 33.523438 "></path><path style=" stroke:none;fill-rule:nonzero;fill:rgb(92.156863%,39.607843%,18.823529%);fill-opacity:1;" d="M 116.050781 32.5625 L 116.050781 34.898438 C 116.050781 35.316406 116.214844 35.421875 116.628906 35.421875 C 116.847656 35.421875 117.019531 35.382812 117.167969 35.316406 L 117.167969 36.257812 C 116.941406 36.351562 116.695312 36.398438 116.421875 36.398438 C 115.484375 36.398438 114.914062 35.8125 114.914062 34.832031 L 114.914062 32.5625 L 114.121094 32.5625 L 114.121094 31.585938 L 114.914062 31.585938 L 114.914062 30.179688 L 116.050781 30.179688 L 116.050781 31.585938 L 117.167969 31.585938 L 117.167969 32.5625 Z M 116.050781 32.5625 "></path><path style=" stroke:none;fill-rule:nonzero;fill:rgb(92.156863%,39.607843%,18.823529%);fill-opacity:1;" d="M 119.691406 33.597656 L 121.59375 33.597656 C 121.535156 33 121.242188 32.429688 120.636719 32.429688 C 120.078125 32.429688 119.757812 32.753906 119.691406 33.597656 Z M 122.503906 35.050781 L 122.503906 35.972656 C 122.066406 36.210938 121.480469 36.398438 120.722656 36.398438 C 119.785156 36.398438 118.523438 36.019531 118.523438 34.007812 C 118.523438 32.589844 119.09375 31.5 120.636719 31.5 C 122.113281 31.5 122.75 32.609375 122.75 33.796875 C 122.75 34.007812 122.75 34.195312 122.730469 34.386719 L 119.691406 34.386719 C 119.757812 35.296875 120.34375 35.421875 120.890625 35.421875 C 121.566406 35.421875 122.105469 35.242188 122.503906 35.050781 Z M 122.503906 35.050781 "></path><path style=" stroke:none;fill-rule:nonzero;fill:rgb(92.156863%,39.607843%,18.823529%);fill-opacity:1;" d="M 124.683594 35.269531 L 125.789062 35.269531 L 125.789062 36.324219 L 124.683594 36.324219 Z M 124.683594 35.269531 "></path><path style=" stroke:none;fill-rule:nonzero;fill:rgb(92.156863%,39.607843%,18.823529%);fill-opacity:1;" d="M 131.066406 33.957031 C 131.066406 32.703125 130.640625 32.457031 129.96875 32.457031 C 129.296875 32.457031 128.867188 32.703125 128.867188 33.957031 C 128.867188 35.210938 129.296875 35.460938 129.96875 35.460938 C 130.640625 35.460938 131.066406 35.210938 131.066406 33.957031 Z M 132.203125 33.957031 C 132.203125 35.535156 131.410156 36.398438 129.96875 36.398438 C 128.527344 36.398438 127.734375 35.535156 127.734375 33.957031 C 127.734375 32.382812 128.527344 31.519531 129.96875 31.519531 C 131.410156 31.519531 132.203125 32.382812 132.203125 33.957031 Z M 132.203125 33.957031 "></path><path style=" stroke:none;fill-rule:nonzero;fill:rgb(92.156863%,39.607843%,18.823529%);fill-opacity:1;" d="M 136.742188 34.074219 C 136.742188 32.988281 136.496094 32.496094 135.765625 32.496094 C 135.265625 32.496094 134.914062 32.609375 134.914062 33.007812 L 134.914062 35.480469 C 135.113281 35.507812 135.339844 35.535156 135.613281 35.535156 C 136.296875 35.535156 136.742188 35.222656 136.742188 34.074219 Z M 137.886719 34.015625 C 137.886719 35.5625 137.101562 36.417969 135.691406 36.417969 C 135.425781 36.417969 135.167969 36.390625 134.914062 36.332031 L 134.914062 38.082031 L 133.777344 38.082031 L 133.777344 33.113281 C 133.777344 32.34375 134.296875 31.519531 135.765625 31.519531 C 136.402344 31.519531 137.886719 31.765625 137.886719 34.015625 Z M 137.886719 34.015625 "></path><path style=" stroke:none;fill-rule:nonzero;fill:rgb(92.156863%,39.607843%,18.823529%);fill-opacity:1;" d="M 140.9375 32.5625 L 140.9375 34.898438 C 140.9375 35.316406 141.101562 35.421875 141.515625 35.421875 C 141.734375 35.421875 141.90625 35.382812 142.054688 35.316406 L 142.054688 36.257812 C 141.828125 36.351562 141.582031 36.398438 141.308594 36.398438 C 140.371094 36.398438 139.800781 35.8125 139.800781 34.832031 L 139.800781 32.5625 L 139.007812 32.5625 L 139.007812 31.585938 L 139.800781 31.585938 L 139.800781 30.179688 L 140.9375 30.179688 L 140.9375 31.585938 L 142.054688 31.585938 L 142.054688 32.5625 Z M 140.9375 32.5625 "></path><path style=" stroke:none;fill-rule:nonzero;fill:rgb(92.156863%,39.607843%,18.823529%);fill-opacity:1;" d="M 143.714844 36.324219 L 143.714844 31.585938 L 144.851562 31.585938 L 144.851562 36.324219 Z M 143.695312 30.9375 L 143.695312 29.894531 L 144.863281 29.894531 L 144.863281 30.9375 Z M 143.695312 30.9375 "></path><path style=" stroke:none;fill-rule:nonzero;fill:rgb(92.156863%,39.607843%,18.823529%);fill-opacity:1;" d="M 153.964844 33.472656 L 153.964844 36.324219 L 152.828125 36.324219 L 152.828125 33.398438 C 152.828125 32.847656 152.648438 32.476562 151.75 32.476562 C 151.386719 32.476562 151.058594 32.523438 150.78125 32.589844 C 150.78125 32.589844 150.980469 32.820312 150.980469 33.472656 L 150.980469 36.324219 L 149.855469 36.324219 L 149.855469 33.371094 C 149.855469 32.847656 149.675781 32.496094 148.792969 32.496094 C 148.507812 32.496094 148.242188 32.523438 148.007812 32.570312 L 148.007812 36.324219 L 146.871094 36.324219 L 146.871094 32.039062 C 146.90625 32.019531 147.808594 31.507812 148.953125 31.507812 C 149.472656 31.507812 149.902344 31.632812 150.234375 31.859375 C 150.613281 31.707031 151.21875 31.507812 151.9375 31.507812 C 153.207031 31.507812 153.964844 32.238281 153.964844 33.472656 Z M 153.964844 33.472656 "></path><path style=" stroke:none;fill-rule:nonzero;fill:rgb(92.156863%,39.607843%,18.823529%);fill-opacity:1;" d="M 155.917969 36.324219 L 155.917969 31.585938 L 157.054688 31.585938 L 157.054688 36.324219 Z M 155.898438 30.9375 L 155.898438 29.894531 L 157.0625 29.894531 L 157.0625 30.9375 Z M 155.898438 30.9375 "></path><path style=" stroke:none;fill-rule:nonzero;fill:rgb(92.156863%,39.607843%,18.823529%);fill-opacity:1;" d="M 160.160156 35.289062 L 162.367188 35.289062 L 162.367188 36.324219 L 158.730469 36.324219 L 158.730469 35.261719 L 160.910156 32.621094 L 158.78125 32.621094 L 158.78125 31.585938 L 162.367188 31.585938 L 162.367188 32.636719 Z M 160.160156 35.289062 "></path><path style=" stroke:none;fill-rule:nonzero;fill:rgb(92.156863%,39.607843%,18.823529%);fill-opacity:1;" d="M 164.890625 33.597656 L 166.792969 33.597656 C 166.738281 33 166.441406 32.429688 165.835938 32.429688 C 165.277344 32.429688 164.957031 32.753906 164.890625 33.597656 Z M 167.703125 35.050781 L 167.703125 35.972656 C 167.265625 36.210938 166.679688 36.398438 165.921875 36.398438 C 164.984375 36.398438 163.726562 36.019531 163.726562 34.007812 C 163.726562 32.589844 164.292969 31.5 165.835938 31.5 C 167.3125 31.5 167.949219 32.609375 167.949219 33.796875 C 167.949219 34.007812 167.949219 34.195312 167.929688 34.386719 L 164.890625 34.386719 C 164.957031 35.296875 165.542969 35.421875 166.09375 35.421875 C 166.765625 35.421875 167.304688 35.242188 167.703125 35.050781 Z M 167.703125 35.050781 "></path><path style=" stroke:none;fill-rule:nonzero;fill:rgb(92.156863%,39.607843%,18.823529%);fill-opacity:1;" d="M 169.882812 35.269531 L 170.992188 35.269531 L 170.992188 36.324219 L 169.882812 36.324219 Z M 169.882812 35.269531 "></path><path style=" stroke:none;fill-rule:nonzero;fill:rgb(92.156863%,39.607843%,18.823529%);fill-opacity:1;" d="M 30.3125 17.585938 C 31.199219 18.5 31.902344 19.554688 32.417969 20.75 C 32.816406 21.675781 33.058594 22.652344 33.148438 23.679688 L 42.519531 23.59375 L 42.519531 21.769531 L 46.449219 18.183594 C 45.328125 14.101562 43.292969 10.632812 40.34375 7.769531 L 35.363281 9.597656 C 34.832031 9.03125 34.25 8.558594 33.613281 8.179688 L 28.953125 16.425781 C 29.441406 16.769531 29.894531 17.15625 30.3125 17.585938 Z M 30.3125 17.585938 "></path><path style=" stroke:none;fill-rule:nonzero;fill:rgb(35.686275%,70.980392%,78.431373%);fill-opacity:1;" d="M 42.519531 25.394531 L 33.152344 25.484375 C 33.066406 26.59375 32.824219 27.632812 32.417969 28.597656 C 31.902344 29.816406 31.199219 30.871094 30.3125 31.761719 C 29.421875 32.652344 28.371094 33.359375 27.15625 33.875 C 25.9375 34.390625 24.628906 34.648438 23.226562 34.648438 C 21.867188 34.648438 20.59375 34.390625 19.402344 33.875 C 18.207031 33.359375 17.144531 32.652344 16.207031 31.761719 C 15.273438 30.871094 14.535156 29.816406 14 28.597656 C 13.460938 27.375 13.191406 26.039062 13.191406 24.585938 C 13.191406 23.226562 13.460938 21.945312 14 20.75 C 14.535156 19.554688 15.273438 18.5 16.207031 17.585938 C 17.144531 16.671875 18.207031 15.941406 19.402344 15.402344 C 20.59375 14.863281 21.867188 14.59375 23.226562 14.59375 C 24.628906 14.59375 25.9375 14.863281 27.15625 15.402344 C 27.238281 15.441406 27.316406 15.480469 27.398438 15.519531 L 31.988281 7.398438 C 31.371094 7.136719 30.722656 6.886719 30.03125 6.644531 L 29.257812 1.296875 C 27.433594 0.59375 25.421875 0.242188 23.226562 0.242188 C 22.148438 0.242188 21.132812 0.324219 20.171875 0.488281 C 19.214844 0.652344 18.195312 0.921875 17.121094 1.296875 L 16.417969 6.644531 C 15.34375 7.019531 14.359375 7.417969 13.472656 7.839844 C 12.582031 8.261719 11.789062 8.847656 11.085938 9.597656 L 6.035156 7.769531 C 4.628906 9.175781 3.402344 10.757812 2.351562 12.519531 C 1.296875 14.277344 0.515625 16.167969 0 18.183594 L 4.28125 21.769531 C 4.09375 22.148438 3.988281 22.582031 3.964844 23.074219 C 3.941406 23.566406 3.929688 24.070312 3.929688 24.585938 C 3.929688 25.148438 3.941406 25.699219 3.964844 26.238281 C 3.988281 26.777344 4.09375 27.304688 4.28125 27.820312 L 0 31.058594 C 0.515625 33.027344 1.296875 34.953125 2.351562 36.828125 C 3.402344 38.703125 4.628906 40.371094 6.035156 41.824219 L 11.085938 39.644531 C 12.535156 41.097656 14.3125 42.175781 16.417969 42.878906 L 17.121094 48.226562 C 18.195312 48.414062 19.214844 48.589844 20.171875 48.753906 C 21.132812 48.917969 22.148438 49 23.226562 49 C 24.300781 49 25.339844 48.917969 26.347656 48.753906 C 27.351562 48.589844 28.324219 48.414062 29.257812 48.226562 L 30.03125 42.878906 C 32.136719 42.175781 33.914062 41.097656 35.363281 39.644531 L 40.34375 41.824219 C 41.796875 40.371094 43.035156 38.703125 44.066406 36.828125 C 45.09375 34.953125 45.890625 33.027344 46.449219 31.058594 L 42.519531 27.820312 Z M 42.519531 25.394531 "></path><path style=" stroke:none;fill-rule:nonzero;fill:rgb(35.686275%,70.980392%,78.431373%);fill-opacity:1;" d="M 3.675781 24.507812 C 3.675781 27.441406 4.4375 29.824219 5.378906 29.824219 C 6.320312 29.824219 7.085938 27.441406 7.085938 24.507812 C 7.085938 21.570312 6.320312 19.1875 5.378906 19.1875 C 4.4375 19.1875 3.675781 21.570312 3.675781 24.507812 Z M 3.675781 24.507812 "></path><path style=" stroke:none;fill-rule:nonzero;fill:rgb(35.686275%,70.980392%,78.431373%);fill-opacity:1;" d="M 13.433594 7.867188 C 10.878906 9.3125 9.171875 11.132812 9.621094 11.925781 C 10.070312 12.71875 12.503906 12.1875 15.054688 10.738281 C 17.609375 9.289062 19.316406 7.472656 18.867188 6.679688 C 18.417969 5.886719 15.988281 6.417969 13.433594 7.867188 Z M 13.433594 7.867188 "></path></g></svg> 